<?xml version="1.0" standalone="no"?>
<!DOCTYPE svg PUBLIC "-//W3C//DTD SVG 20010904//EN"
 "http://www.w3.org/TR/2001/REC-SVG-20010904/DTD/svg10.dtd">
<svg version="1.0" xmlns="http://www.w3.org/2000/svg"
 width="700.000000pt" height="700.000000pt" viewBox="0 0 700.000000 700.000000"
 preserveAspectRatio="xMidYMid meet">
<metadata>
Created by potrace 1.11, written by Peter Selinger 2001-2013
</metadata>
<g transform="translate(0.000000,700.000000) scale(0.100000,-0.100000)"
fill="#000000" stroke="none">
<path d="M3240 6989 c-470 -38 -902 -158 -1320 -370 -569 -287 -1048 -725
-1391 -1271 -296 -473 -473 -1021 -519 -1607 -38 -500 46 -1046 237 -1526 277
-697 767 -1286 1405 -1686 611 -382 1381 -574 2089 -519 744 58 1400 318 1969
779 373 302 691 698 909 1131 216 427 332 848 371 1339 38 500 -46 1046 -237
1526 -277 697 -767 1286 -1405 1686 -232 145 -564 296 -823 374 -416 126 -873
177 -1285 144z m820 -990 c222 -16 396 -44 653 -105 l147 -36 0 -489 0 -489
-176 2 -176 3 -47 140 c-130 387 -306 574 -600 641 -107 24 -388 30 -496 9
-358 -67 -579 -301 -615 -651 -11 -103 1 -271 26 -369 45 -178 174 -353 365
-497 120 -89 227 -152 534 -313 374 -196 498 -269 650 -379 315 -228 510 -489
585 -782 64 -251 44 -629 -47 -879 -162 -443 -523 -706 -1082 -790 -423 -63
-899 -28 -1523 112 l-208 47 0 493 0 493 182 -2 182 -3 13 -55 c62 -249 181
-478 305 -585 154 -131 301 -185 567 -207 236 -19 414 9 590 94 87 42 116 62
181 127 62 62 86 96 124 171 76 156 89 221 90 455 1 230 -13 305 -84 451 -119
244 -323 404 -895 702 -303 158 -420 225 -569 325 -266 180 -462 400 -556 624
-89 212 -109 485 -55 747 74 357 306 649 654 822 211 104 500 175 771 187 96
5 355 -2 510 -14z"/>
</g>
</svg>
