<?xml version="1.0" encoding="UTF-8" standalone="no"?>
<svg
   xmlns:dc="http://purl.org/dc/elements/1.1/"
   xmlns:cc="http://creativecommons.org/ns#"
   xmlns:rdf="http://www.w3.org/1999/02/22-rdf-syntax-ns#"
   xmlns:svg="http://www.w3.org/2000/svg"
   xmlns="http://www.w3.org/2000/svg"
   xmlns:sodipodi="http://sodipodi.sourceforge.net/DTD/sodipodi-0.dtd"
   xmlns:inkscape="http://www.inkscape.org/namespaces/inkscape"
   height="1000"
   width="1000"
   id="svg2"
   version="1.1"
   inkscape:version="0.91 r13725"
   sodipodi:docname="rss.svg">
  <metadata
     id="metadata10">
    <rdf:RDF>
      <cc:Work
         rdf:about="">
        <dc:format>image/svg+xml</dc:format>
        <dc:type
           rdf:resource="http://purl.org/dc/dcmitype/StillImage" />
      </cc:Work>
    </rdf:RDF>
  </metadata>
  <defs
     id="defs8" />
  <sodipodi:namedview
     pagecolor="#ffffff"
     bordercolor="#666666"
     borderopacity="1"
     objecttolerance="10"
     gridtolerance="10"
     guidetolerance="10"
     inkscape:pageopacity="0"
     inkscape:pageshadow="2"
     inkscape:window-width="1920"
     inkscape:window-height="1017"
     id="namedview6"
     showgrid="false"
     inkscape:zoom="0.236"
     inkscape:cx="-786.01695"
     inkscape:cy="321.89237"
     inkscape:window-x="1192"
     inkscape:window-y="540"
     inkscape:window-maximized="1"
     inkscape:current-layer="svg2" />
  <path
     d="M0 866q0-55 39-94t94-39 94 39 39 94q0 56-39 94.5t-94 38.5-94-39-39-94zm0-335l0-191q179 0 331 88.5t240.5 240.5 88.5 331l-192 0q0-194-137-331-138-138-331-138zm0-339l0-192q203 0 388 79.5t319 213.5 213.5 319 79.5 388l-192 0q0-164-64-314t-172.5-258-258-172-313.5-64z"
     id="path4"
     style="fill:#9b3928;fill-opacity:1" />
</svg>
